<mxfile host="app.diagrams.net" agent="Mozilla/5.0 (Macintosh; Intel Mac OS X 10_15_7) AppleWebKit/537.36 (KHTML, like Gecko) Chrome/128.0.0.0 Safari/537.36" version="24.7.8">
  <diagram name="페이지-1" id="IK191SdpP6nFnNJA5NYr">
    <mxGraphModel dx="1026" dy="684" grid="1" gridSize="10" guides="1" tooltips="1" connect="1" arrows="1" fold="1" page="1" pageScale="1" pageWidth="827" pageHeight="1169" math="0" shadow="0">
      <root>
        <mxCell id="0" />
        <mxCell id="1" parent="0" />
        <mxCell id="MOfZ0UF6O1ds08dy238V-4" value="Game" style="verticalAlign=top;align=left;spacingTop=8;spacingLeft=2;spacingRight=12;shape=cube;size=10;direction=south;fontStyle=4;html=1;whiteSpace=wrap;rotation=0;labelBackgroundColor=none;rounded=0;fillStyle=auto;fillColor=#bac8d3;strokeColor=#23445d;" parent="1" vertex="1">
          <mxGeometry x="120" y="120" width="620" height="470" as="geometry" />
        </mxCell>
        <mxCell id="MOfZ0UF6O1ds08dy238V-5" value="Native" style="verticalAlign=top;align=left;spacingTop=8;spacingLeft=2;spacingRight=12;shape=cube;size=10;direction=south;fontStyle=4;html=1;whiteSpace=wrap;rotation=0;labelBackgroundColor=none;rounded=0;fillColor=#bac8d3;strokeColor=#23445d;" parent="1" vertex="1">
          <mxGeometry x="120" y="665" width="620" height="470" as="geometry" />
        </mxCell>
        <mxCell id="MOfZ0UF6O1ds08dy238V-25" value="MiniPubSub" style="shape=folder;fontStyle=1;spacingTop=10;tabWidth=40;tabHeight=14;tabPosition=left;html=1;whiteSpace=wrap;fillColor=#dae8fc;strokeColor=#6c8ebf;verticalAlign=top;align=left;rounded=0;" parent="1" vertex="1">
          <mxGeometry x="310" y="150" width="390" height="410" as="geometry" />
        </mxCell>
        <mxCell id="MOfZ0UF6O1ds08dy238V-14" value="Game Bridge" style="shape=folder;fontStyle=1;spacingTop=10;tabWidth=40;tabHeight=14;tabPosition=left;html=1;whiteSpace=wrap;fillColor=#d5e8d4;strokeColor=#82b366;rounded=0;" parent="1" vertex="1">
          <mxGeometry x="592" y="724" width="70" height="50" as="geometry" />
        </mxCell>
        <mxCell id="MOfZ0UF6O1ds08dy238V-15" value="Bridge" style="shape=folder;fontStyle=1;spacingTop=10;tabWidth=40;tabHeight=14;tabPosition=left;html=1;whiteSpace=wrap;fillColor=#f8cecc;strokeColor=#b85450;verticalAlign=bottom;align=left;rounded=0;" parent="1" vertex="1">
          <mxGeometry x="422" y="409" width="258" height="139" as="geometry" />
        </mxCell>
        <mxCell id="MOfZ0UF6O1ds08dy238V-94" style="edgeStyle=orthogonalEdgeStyle;rounded=0;orthogonalLoop=1;jettySize=auto;html=1;entryX=1;entryY=0.5;entryDx=0;entryDy=0;" parent="1" source="MOfZ0UF6O1ds08dy238V-18" target="MOfZ0UF6O1ds08dy238V-93" edge="1">
          <mxGeometry relative="1" as="geometry" />
        </mxCell>
        <mxCell id="MOfZ0UF6O1ds08dy238V-115" style="edgeStyle=orthogonalEdgeStyle;rounded=0;orthogonalLoop=1;jettySize=auto;html=1;exitX=0.25;exitY=1;exitDx=0;exitDy=0;" parent="1" source="MOfZ0UF6O1ds08dy238V-18" target="MOfZ0UF6O1ds08dy238V-112" edge="1">
          <mxGeometry relative="1" as="geometry" />
        </mxCell>
        <mxCell id="MOfZ0UF6O1ds08dy238V-18" value="MessageMediator" style="html=1;whiteSpace=wrap;labelBackgroundColor=none;fillColor=#d5e8d4;strokeColor=#82b366;rounded=0;" parent="1" vertex="1">
          <mxGeometry x="477" y="340" width="110" height="40" as="geometry" />
        </mxCell>
        <mxCell id="MOfZ0UF6O1ds08dy238V-22" value="" style="group;rounded=0;" parent="1" vertex="1" connectable="0">
          <mxGeometry x="462" y="199" width="130" height="90" as="geometry" />
        </mxCell>
        <mxCell id="MOfZ0UF6O1ds08dy238V-19" value="Messenger" style="html=1;whiteSpace=wrap;labelBackgroundColor=none;fillColor=#d5e8d4;strokeColor=#82b366;verticalAlign=top;horizontal=1;align=center;rounded=0;" parent="MOfZ0UF6O1ds08dy238V-22" vertex="1">
          <mxGeometry x="5" width="130" height="90" as="geometry" />
        </mxCell>
        <mxCell id="MOfZ0UF6O1ds08dy238V-7" value="Publsiher" style="html=1;whiteSpace=wrap;labelBackgroundColor=none;fillColor=#60a917;strokeColor=#2D7600;fontColor=#ffffff;rounded=0;" parent="MOfZ0UF6O1ds08dy238V-22" vertex="1">
          <mxGeometry x="26" y="29" width="88" height="40" as="geometry" />
        </mxCell>
        <mxCell id="MOfZ0UF6O1ds08dy238V-100" style="edgeStyle=orthogonalEdgeStyle;rounded=0;orthogonalLoop=1;jettySize=auto;html=1;entryX=0;entryY=0.5;entryDx=0;entryDy=0;" parent="1" source="MOfZ0UF6O1ds08dy238V-27" target="MOfZ0UF6O1ds08dy238V-7" edge="1">
          <mxGeometry relative="1" as="geometry" />
        </mxCell>
        <mxCell id="MOfZ0UF6O1ds08dy238V-132" style="edgeStyle=orthogonalEdgeStyle;orthogonalLoop=1;jettySize=auto;html=1;exitX=1;exitY=0.75;exitDx=0;exitDy=0;entryX=0.25;entryY=1;entryDx=0;entryDy=0;rounded=0;curved=0;" parent="1" source="MOfZ0UF6O1ds08dy238V-27" target="MOfZ0UF6O1ds08dy238V-19" edge="1">
          <mxGeometry relative="1" as="geometry">
            <Array as="points">
              <mxPoint x="230" y="261" />
              <mxPoint x="230" y="309" />
              <mxPoint x="499" y="309" />
            </Array>
          </mxGeometry>
        </mxCell>
        <mxCell id="MOfZ0UF6O1ds08dy238V-133" value="&lt;font style=&quot;font-size: 13px;&quot;&gt;Subscribe&lt;/font&gt;" style="edgeLabel;html=1;align=center;verticalAlign=middle;resizable=0;points=[];" parent="MOfZ0UF6O1ds08dy238V-132" vertex="1" connectable="0">
          <mxGeometry x="0.099" relative="1" as="geometry">
            <mxPoint as="offset" />
          </mxGeometry>
        </mxCell>
        <mxCell id="MOfZ0UF6O1ds08dy238V-27" value="Game side object" style="html=1;whiteSpace=wrap;fillColor=#1ba1e2;fontColor=#ffffff;strokeColor=#006EAF;rounded=0;" parent="1" vertex="1">
          <mxGeometry x="170" y="223" width="110" height="50" as="geometry" />
        </mxCell>
        <mxCell id="MOfZ0UF6O1ds08dy238V-1" value="Message" style="html=1;whiteSpace=wrap;labelBackgroundColor=none;fillColor=#e1d5e7;strokeColor=#9673a6;rounded=0;" parent="1" vertex="1">
          <mxGeometry x="343" y="233" width="60" height="30" as="geometry" />
        </mxCell>
        <mxCell id="MOfZ0UF6O1ds08dy238V-123" style="edgeStyle=orthogonalEdgeStyle;rounded=0;orthogonalLoop=1;jettySize=auto;html=1;exitX=0.967;exitY=0.22;exitDx=0;exitDy=0;exitPerimeter=0;entryX=0.5;entryY=1;entryDx=0;entryDy=0;strokeColor=#FF8000;strokeWidth=3;" parent="1" source="MOfZ0UF6O1ds08dy238V-9" target="MOfZ0UF6O1ds08dy238V-46" edge="1">
          <mxGeometry relative="1" as="geometry">
            <Array as="points">
              <mxPoint x="640" y="613" />
            </Array>
          </mxGeometry>
        </mxCell>
        <mxCell id="MOfZ0UF6O1ds08dy238V-9" value="json" style="shape=card;whiteSpace=wrap;html=1;fillColor=#e1d5e7;strokeColor=#9673a6;size=20;rounded=0;" parent="1" vertex="1">
          <mxGeometry x="550" y="604" width="60" height="41" as="geometry" />
        </mxCell>
        <mxCell id="MOfZ0UF6O1ds08dy238V-121" style="edgeStyle=orthogonalEdgeStyle;rounded=0;orthogonalLoop=1;jettySize=auto;html=1;strokeColor=#FF8000;strokeWidth=3;" parent="1" source="MOfZ0UF6O1ds08dy238V-46" target="MOfZ0UF6O1ds08dy238V-9" edge="1">
          <mxGeometry relative="1" as="geometry">
            <Array as="points">
              <mxPoint x="580" y="511" />
            </Array>
          </mxGeometry>
        </mxCell>
        <mxCell id="MOfZ0UF6O1ds08dy238V-46" value="Message" style="html=1;whiteSpace=wrap;labelBackgroundColor=none;fillColor=#e1d5e7;strokeColor=#9673a6;rounded=0;" parent="1" vertex="1">
          <mxGeometry x="610" y="495.5" width="60" height="30" as="geometry" />
        </mxCell>
        <mxCell id="MOfZ0UF6O1ds08dy238V-53" value="MiniPubSub" style="shape=folder;fontStyle=1;spacingTop=10;tabWidth=40;tabHeight=14;tabPosition=left;html=1;whiteSpace=wrap;fillColor=#dae8fc;strokeColor=#6c8ebf;verticalAlign=top;align=left;rounded=0;" parent="1" vertex="1">
          <mxGeometry x="330" y="690" width="370" height="410" as="geometry" />
        </mxCell>
        <mxCell id="MOfZ0UF6O1ds08dy238V-54" value="Bridge" style="shape=folder;fontStyle=1;spacingTop=10;tabWidth=40;tabHeight=14;tabPosition=left;html=1;whiteSpace=wrap;fillColor=#f8cecc;strokeColor=#b85450;verticalAlign=top;align=left;rounded=0;" parent="1" vertex="1">
          <mxGeometry x="427" y="725" width="250" height="135" as="geometry" />
        </mxCell>
        <mxCell id="MOfZ0UF6O1ds08dy238V-55" style="edgeStyle=orthogonalEdgeStyle;rounded=0;orthogonalLoop=1;jettySize=auto;html=1;exitX=0.25;exitY=0;exitDx=0;exitDy=0;" parent="1" source="MOfZ0UF6O1ds08dy238V-56" target="MOfZ0UF6O1ds08dy238V-63" edge="1">
          <mxGeometry relative="1" as="geometry" />
        </mxCell>
        <mxCell id="MOfZ0UF6O1ds08dy238V-87" style="edgeStyle=orthogonalEdgeStyle;rounded=0;orthogonalLoop=1;jettySize=auto;html=1;exitX=0.75;exitY=1;exitDx=0;exitDy=0;entryX=0.75;entryY=0;entryDx=0;entryDy=0;" parent="1" source="MOfZ0UF6O1ds08dy238V-56" target="MOfZ0UF6O1ds08dy238V-58" edge="1">
          <mxGeometry relative="1" as="geometry" />
        </mxCell>
        <mxCell id="MOfZ0UF6O1ds08dy238V-56" value="MessageMediator" style="html=1;whiteSpace=wrap;labelBackgroundColor=none;fillColor=#d5e8d4;strokeColor=#82b366;rounded=0;" parent="1" vertex="1">
          <mxGeometry x="482" y="902" width="110" height="40" as="geometry" />
        </mxCell>
        <mxCell id="MOfZ0UF6O1ds08dy238V-57" value="" style="group;verticalAlign=bottom;align=center;rounded=0;" parent="1" vertex="1" connectable="0">
          <mxGeometry x="467" y="990" width="130" height="90" as="geometry" />
        </mxCell>
        <mxCell id="MOfZ0UF6O1ds08dy238V-58" value="Messenger" style="html=1;whiteSpace=wrap;labelBackgroundColor=none;fillColor=#d5e8d4;strokeColor=#82b366;verticalAlign=bottom;horizontal=1;align=center;rounded=0;" parent="MOfZ0UF6O1ds08dy238V-57" vertex="1">
          <mxGeometry width="130" height="90" as="geometry" />
        </mxCell>
        <mxCell id="MOfZ0UF6O1ds08dy238V-59" value="Publsiher" style="html=1;whiteSpace=wrap;labelBackgroundColor=none;fillColor=#60a917;strokeColor=#2D7600;fontColor=#ffffff;rounded=0;" parent="MOfZ0UF6O1ds08dy238V-57" vertex="1">
          <mxGeometry x="21" y="23" width="88" height="40" as="geometry" />
        </mxCell>
        <mxCell id="MOfZ0UF6O1ds08dy238V-75" style="edgeStyle=orthogonalEdgeStyle;rounded=0;orthogonalLoop=1;jettySize=auto;html=1;entryX=1;entryY=0.25;entryDx=0;entryDy=0;" parent="1" source="MOfZ0UF6O1ds08dy238V-61" target="MOfZ0UF6O1ds08dy238V-74" edge="1">
          <mxGeometry relative="1" as="geometry" />
        </mxCell>
        <mxCell id="MOfZ0UF6O1ds08dy238V-61" value="Message" style="html=1;whiteSpace=wrap;labelBackgroundColor=none;fillColor=#e1d5e7;strokeColor=#9673a6;rounded=0;" parent="1" vertex="1">
          <mxGeometry x="350" y="990" width="60" height="30" as="geometry" />
        </mxCell>
        <mxCell id="MOfZ0UF6O1ds08dy238V-117" style="edgeStyle=orthogonalEdgeStyle;rounded=0;orthogonalLoop=1;jettySize=auto;html=1;entryX=0.5;entryY=1;entryDx=0;entryDy=0;entryPerimeter=0;strokeColor=#FF8000;strokeWidth=3;" parent="1" source="MOfZ0UF6O1ds08dy238V-65" target="MOfZ0UF6O1ds08dy238V-9" edge="1">
          <mxGeometry relative="1" as="geometry">
            <mxPoint x="580" y="650" as="targetPoint" />
            <Array as="points">
              <mxPoint x="580" y="780" />
            </Array>
          </mxGeometry>
        </mxCell>
        <mxCell id="MOfZ0UF6O1ds08dy238V-65" value="Message" style="html=1;whiteSpace=wrap;labelBackgroundColor=none;fillColor=#e1d5e7;strokeColor=#9673a6;rounded=0;" parent="1" vertex="1">
          <mxGeometry x="610" y="764.5" width="60" height="30" as="geometry" />
        </mxCell>
        <mxCell id="MOfZ0UF6O1ds08dy238V-82" style="edgeStyle=orthogonalEdgeStyle;rounded=0;orthogonalLoop=1;jettySize=auto;html=1;exitX=1;exitY=0.75;exitDx=0;exitDy=0;entryX=0;entryY=0.5;entryDx=0;entryDy=0;" parent="1" source="MOfZ0UF6O1ds08dy238V-74" target="MOfZ0UF6O1ds08dy238V-80" edge="1">
          <mxGeometry relative="1" as="geometry" />
        </mxCell>
        <mxCell id="MOfZ0UF6O1ds08dy238V-129" style="edgeStyle=orthogonalEdgeStyle;orthogonalLoop=1;jettySize=auto;html=1;entryX=0;entryY=0.5;entryDx=0;entryDy=0;rounded=0;" parent="1" source="MOfZ0UF6O1ds08dy238V-74" target="MOfZ0UF6O1ds08dy238V-126" edge="1">
          <mxGeometry relative="1" as="geometry">
            <Array as="points">
              <mxPoint x="230" y="922" />
            </Array>
          </mxGeometry>
        </mxCell>
        <mxCell id="MOfZ0UF6O1ds08dy238V-136" style="edgeStyle=orthogonalEdgeStyle;orthogonalLoop=1;jettySize=auto;html=1;entryX=0.5;entryY=1;entryDx=0;entryDy=0;rounded=0;curved=0;" parent="1" source="MOfZ0UF6O1ds08dy238V-74" target="MOfZ0UF6O1ds08dy238V-58" edge="1">
          <mxGeometry relative="1" as="geometry">
            <Array as="points">
              <mxPoint x="230" y="1110" />
              <mxPoint x="532" y="1110" />
            </Array>
          </mxGeometry>
        </mxCell>
        <mxCell id="MOfZ0UF6O1ds08dy238V-137" value="&lt;font style=&quot;font-size: 13px;&quot;&gt;Subscribe&lt;/font&gt;" style="edgeLabel;html=1;align=center;verticalAlign=middle;resizable=0;points=[];" parent="MOfZ0UF6O1ds08dy238V-136" vertex="1" connectable="0">
          <mxGeometry x="0.1204" y="-2" relative="1" as="geometry">
            <mxPoint as="offset" />
          </mxGeometry>
        </mxCell>
        <mxCell id="MOfZ0UF6O1ds08dy238V-74" value="Native side object" style="html=1;whiteSpace=wrap;fillColor=#1ba1e2;fontColor=#ffffff;strokeColor=#006EAF;rounded=0;" parent="1" vertex="1">
          <mxGeometry x="170" y="1005" width="110" height="50" as="geometry" />
        </mxCell>
        <mxCell id="MOfZ0UF6O1ds08dy238V-81" style="edgeStyle=orthogonalEdgeStyle;rounded=0;orthogonalLoop=1;jettySize=auto;html=1;" parent="1" source="MOfZ0UF6O1ds08dy238V-80" target="MOfZ0UF6O1ds08dy238V-59" edge="1">
          <mxGeometry relative="1" as="geometry" />
        </mxCell>
        <mxCell id="MOfZ0UF6O1ds08dy238V-80" value="Message" style="html=1;whiteSpace=wrap;labelBackgroundColor=none;fillColor=#e1d5e7;strokeColor=#9673a6;rounded=0;" parent="1" vertex="1">
          <mxGeometry x="350" y="1038" width="60" height="30" as="geometry" />
        </mxCell>
        <mxCell id="MOfZ0UF6O1ds08dy238V-83" style="edgeStyle=orthogonalEdgeStyle;rounded=0;orthogonalLoop=1;jettySize=auto;html=1;exitX=0.25;exitY=0;exitDx=0;exitDy=0;entryX=0.25;entryY=1;entryDx=0;entryDy=0;" parent="1" source="MOfZ0UF6O1ds08dy238V-59" target="MOfZ0UF6O1ds08dy238V-56" edge="1">
          <mxGeometry relative="1" as="geometry" />
        </mxCell>
        <mxCell id="MOfZ0UF6O1ds08dy238V-84" style="edgeStyle=orthogonalEdgeStyle;rounded=0;orthogonalLoop=1;jettySize=auto;html=1;exitX=0;exitY=0.25;exitDx=0;exitDy=0;entryX=1;entryY=0.5;entryDx=0;entryDy=0;" parent="1" source="MOfZ0UF6O1ds08dy238V-58" target="MOfZ0UF6O1ds08dy238V-61" edge="1">
          <mxGeometry relative="1" as="geometry" />
        </mxCell>
        <mxCell id="MOfZ0UF6O1ds08dy238V-89" style="edgeStyle=orthogonalEdgeStyle;rounded=0;orthogonalLoop=1;jettySize=auto;html=1;exitX=0.5;exitY=1;exitDx=0;exitDy=0;" parent="1" source="MOfZ0UF6O1ds08dy238V-7" target="MOfZ0UF6O1ds08dy238V-18" edge="1">
          <mxGeometry relative="1" as="geometry" />
        </mxCell>
        <mxCell id="MOfZ0UF6O1ds08dy238V-96" style="edgeStyle=orthogonalEdgeStyle;rounded=0;orthogonalLoop=1;jettySize=auto;html=1;entryX=0.5;entryY=0;entryDx=0;entryDy=0;" parent="1" source="MOfZ0UF6O1ds08dy238V-93" target="MOfZ0UF6O1ds08dy238V-95" edge="1">
          <mxGeometry relative="1" as="geometry" />
        </mxCell>
        <mxCell id="MOfZ0UF6O1ds08dy238V-93" value="Messenger" style="html=1;whiteSpace=wrap;labelBackgroundColor=none;fillColor=#d5e8d4;strokeColor=#82b366;verticalAlign=middle;horizontal=1;align=center;rounded=0;" parent="1" vertex="1">
          <mxGeometry x="347" y="340" width="70" height="40" as="geometry" />
        </mxCell>
        <mxCell id="MOfZ0UF6O1ds08dy238V-134" style="edgeStyle=orthogonalEdgeStyle;orthogonalLoop=1;jettySize=auto;html=1;exitX=1;exitY=0.5;exitDx=0;exitDy=0;entryX=0.5;entryY=1;entryDx=0;entryDy=0;rounded=0;curved=0;" parent="1" source="MOfZ0UF6O1ds08dy238V-95" target="MOfZ0UF6O1ds08dy238V-93" edge="1">
          <mxGeometry relative="1" as="geometry" />
        </mxCell>
        <mxCell id="MOfZ0UF6O1ds08dy238V-135" value="&lt;font style=&quot;font-size: 13px;&quot;&gt;Subscribe&lt;/font&gt;" style="edgeLabel;html=1;align=center;verticalAlign=middle;resizable=0;points=[];" parent="MOfZ0UF6O1ds08dy238V-134" vertex="1" connectable="0">
          <mxGeometry x="-0.1687" y="2" relative="1" as="geometry">
            <mxPoint as="offset" />
          </mxGeometry>
        </mxCell>
        <mxCell id="MOfZ0UF6O1ds08dy238V-95" value="Other object" style="html=1;whiteSpace=wrap;fillColor=#1ba1e2;fontColor=#ffffff;strokeColor=#006EAF;rounded=0;" parent="1" vertex="1">
          <mxGeometry x="170" y="440" width="110" height="50" as="geometry" />
        </mxCell>
        <mxCell id="MOfZ0UF6O1ds08dy238V-97" value="Message" style="html=1;whiteSpace=wrap;labelBackgroundColor=none;fillColor=#e1d5e7;strokeColor=#9673a6;rounded=0;" parent="1" vertex="1">
          <mxGeometry x="195" y="345" width="60" height="30" as="geometry" />
        </mxCell>
        <mxCell id="MOfZ0UF6O1ds08dy238V-104" value="" style="group;rounded=0;" parent="1" vertex="1" connectable="0">
          <mxGeometry x="460" y="769" width="100" height="80" as="geometry" />
        </mxCell>
        <mxCell id="MOfZ0UF6O1ds08dy238V-110" value="" style="group;rounded=0;" parent="MOfZ0UF6O1ds08dy238V-104" vertex="1" connectable="0">
          <mxGeometry y="10" width="100" height="70" as="geometry" />
        </mxCell>
        <mxCell id="MOfZ0UF6O1ds08dy238V-63" value="Watcher" style="html=1;whiteSpace=wrap;labelBackgroundColor=none;fillColor=#d5e8d4;strokeColor=#82b366;verticalAlign=top;horizontal=1;align=center;rounded=0;" parent="MOfZ0UF6O1ds08dy238V-110" vertex="1">
          <mxGeometry width="100" height="70" as="geometry" />
        </mxCell>
        <mxCell id="MOfZ0UF6O1ds08dy238V-103" value="Publsiher" style="html=1;whiteSpace=wrap;labelBackgroundColor=none;fillColor=#60a917;strokeColor=#2D7600;fontColor=#ffffff;rounded=0;" parent="MOfZ0UF6O1ds08dy238V-110" vertex="1">
          <mxGeometry x="18" y="29.5" width="64" height="30.5" as="geometry" />
        </mxCell>
        <mxCell id="MOfZ0UF6O1ds08dy238V-70" style="edgeStyle=orthogonalEdgeStyle;rounded=0;orthogonalLoop=1;jettySize=auto;html=1;exitX=0.75;exitY=1;exitDx=0;exitDy=0;entryX=1;entryY=0.75;entryDx=0;entryDy=0;" parent="1" source="MOfZ0UF6O1ds08dy238V-65" target="MOfZ0UF6O1ds08dy238V-103" edge="1">
          <mxGeometry relative="1" as="geometry" />
        </mxCell>
        <mxCell id="MOfZ0UF6O1ds08dy238V-106" style="edgeStyle=orthogonalEdgeStyle;rounded=0;orthogonalLoop=1;jettySize=auto;html=1;exitX=1;exitY=0.5;exitDx=0;exitDy=0;entryX=0.25;entryY=1;entryDx=0;entryDy=0;" parent="1" source="MOfZ0UF6O1ds08dy238V-63" target="MOfZ0UF6O1ds08dy238V-65" edge="1">
          <mxGeometry relative="1" as="geometry" />
        </mxCell>
        <mxCell id="MOfZ0UF6O1ds08dy238V-108" style="edgeStyle=orthogonalEdgeStyle;rounded=0;orthogonalLoop=1;jettySize=auto;html=1;exitX=0.75;exitY=1;exitDx=0;exitDy=0;entryX=0.75;entryY=0;entryDx=0;entryDy=0;" parent="1" source="MOfZ0UF6O1ds08dy238V-103" target="MOfZ0UF6O1ds08dy238V-56" edge="1">
          <mxGeometry relative="1" as="geometry" />
        </mxCell>
        <mxCell id="MOfZ0UF6O1ds08dy238V-111" value="" style="group;verticalAlign=bottom;rounded=0;" parent="1" vertex="1" connectable="0">
          <mxGeometry x="455" y="440" width="100" height="70" as="geometry" />
        </mxCell>
        <mxCell id="MOfZ0UF6O1ds08dy238V-112" value="Watcher" style="html=1;whiteSpace=wrap;labelBackgroundColor=none;fillColor=#d5e8d4;strokeColor=#82b366;verticalAlign=bottom;horizontal=1;align=center;rounded=0;" parent="MOfZ0UF6O1ds08dy238V-111" vertex="1">
          <mxGeometry width="100" height="70" as="geometry" />
        </mxCell>
        <mxCell id="MOfZ0UF6O1ds08dy238V-113" value="Publsiher" style="html=1;whiteSpace=wrap;labelBackgroundColor=none;fillColor=#60a917;strokeColor=#2D7600;fontColor=#ffffff;rounded=0;" parent="MOfZ0UF6O1ds08dy238V-111" vertex="1">
          <mxGeometry x="18" y="11.5" width="64" height="30.5" as="geometry" />
        </mxCell>
        <mxCell id="MOfZ0UF6O1ds08dy238V-116" style="edgeStyle=orthogonalEdgeStyle;rounded=0;orthogonalLoop=1;jettySize=auto;html=1;exitX=0.75;exitY=0;exitDx=0;exitDy=0;entryX=0.75;entryY=1;entryDx=0;entryDy=0;" parent="1" source="MOfZ0UF6O1ds08dy238V-113" target="MOfZ0UF6O1ds08dy238V-18" edge="1">
          <mxGeometry relative="1" as="geometry" />
        </mxCell>
        <mxCell id="MOfZ0UF6O1ds08dy238V-120" style="edgeStyle=orthogonalEdgeStyle;rounded=0;orthogonalLoop=1;jettySize=auto;html=1;exitX=0.75;exitY=0;exitDx=0;exitDy=0;entryX=1;entryY=0.25;entryDx=0;entryDy=0;" parent="1" source="MOfZ0UF6O1ds08dy238V-46" target="MOfZ0UF6O1ds08dy238V-113" edge="1">
          <mxGeometry relative="1" as="geometry" />
        </mxCell>
        <mxCell id="MOfZ0UF6O1ds08dy238V-119" style="edgeStyle=orthogonalEdgeStyle;rounded=0;orthogonalLoop=1;jettySize=auto;html=1;exitX=1;exitY=0.5;exitDx=0;exitDy=0;entryX=0.25;entryY=0;entryDx=0;entryDy=0;" parent="1" source="MOfZ0UF6O1ds08dy238V-112" target="MOfZ0UF6O1ds08dy238V-46" edge="1">
          <mxGeometry relative="1" as="geometry" />
        </mxCell>
        <mxCell id="MOfZ0UF6O1ds08dy238V-122" style="edgeStyle=orthogonalEdgeStyle;rounded=0;orthogonalLoop=1;jettySize=auto;html=1;exitX=0.983;exitY=0.732;exitDx=0;exitDy=0;exitPerimeter=0;entryX=0.5;entryY=0;entryDx=0;entryDy=0;strokeColor=#FF8000;strokeWidth=3;" parent="1" source="MOfZ0UF6O1ds08dy238V-9" target="MOfZ0UF6O1ds08dy238V-65" edge="1">
          <mxGeometry relative="1" as="geometry" />
        </mxCell>
        <mxCell id="MOfZ0UF6O1ds08dy238V-130" style="edgeStyle=orthogonalEdgeStyle;orthogonalLoop=1;jettySize=auto;html=1;" parent="1" source="MOfZ0UF6O1ds08dy238V-126" target="MOfZ0UF6O1ds08dy238V-56" edge="1">
          <mxGeometry relative="1" as="geometry" />
        </mxCell>
        <mxCell id="MOfZ0UF6O1ds08dy238V-126" value="Publsiher" style="html=1;whiteSpace=wrap;labelBackgroundColor=none;fillColor=#60a917;strokeColor=#2D7600;fontColor=#ffffff;rounded=0;" parent="1" vertex="1">
          <mxGeometry x="360" y="902" width="88" height="40" as="geometry" />
        </mxCell>
        <mxCell id="MOfZ0UF6O1ds08dy238V-139" value="Message" style="html=1;whiteSpace=wrap;labelBackgroundColor=none;fillColor=#e1d5e7;strokeColor=#9673a6;rounded=0;" parent="1" vertex="1">
          <mxGeometry x="200" y="907" width="60" height="30" as="geometry" />
        </mxCell>
        <mxCell id="MOfZ0UF6O1ds08dy238V-140" value="&lt;font style=&quot;font-size: 15px;&quot; color=&quot;#ffffff&quot;&gt;&lt;b&gt;1&lt;/b&gt;&lt;/font&gt;" style="ellipse;whiteSpace=wrap;html=1;aspect=fixed;fillColor=#000000;strokeColor=#FFFFFF;strokeWidth=2;" parent="1" vertex="1">
          <mxGeometry x="310" y="273" width="27" height="27" as="geometry" />
        </mxCell>
        <mxCell id="MOfZ0UF6O1ds08dy238V-142" value="&lt;font style=&quot;font-size: 15px;&quot; color=&quot;#ffffff&quot;&gt;&lt;b&gt;2&lt;/b&gt;&lt;/font&gt;" style="ellipse;whiteSpace=wrap;html=1;aspect=fixed;fillColor=#000000;strokeColor=#FFFFFF;strokeWidth=2;" parent="1" vertex="1">
          <mxGeometry x="323" y="206" width="27" height="27" as="geometry" />
        </mxCell>
        <mxCell id="MOfZ0UF6O1ds08dy238V-143" value="&lt;font style=&quot;font-size: 15px;&quot; color=&quot;#ffffff&quot;&gt;&lt;b&gt;3&lt;/b&gt;&lt;/font&gt;" style="ellipse;whiteSpace=wrap;html=1;aspect=fixed;fillColor=#000000;strokeColor=#FFFFFF;strokeWidth=2;" parent="1" vertex="1">
          <mxGeometry x="597" y="320" width="27" height="27" as="geometry" />
        </mxCell>
        <mxCell id="MOfZ0UF6O1ds08dy238V-144" value="&lt;font style=&quot;font-size: 15px;&quot; color=&quot;#ffffff&quot;&gt;&lt;b&gt;4&lt;/b&gt;&lt;/font&gt;" style="ellipse;whiteSpace=wrap;html=1;aspect=fixed;fillColor=#000000;strokeColor=#FFFFFF;strokeWidth=2;" parent="1" vertex="1">
          <mxGeometry x="427" y="468.5" width="27" height="27" as="geometry" />
        </mxCell>
        <mxCell id="MOfZ0UF6O1ds08dy238V-145" value="&lt;font style=&quot;font-size: 15px;&quot; color=&quot;#ffffff&quot;&gt;&lt;b&gt;5&lt;/b&gt;&lt;/font&gt;" style="ellipse;whiteSpace=wrap;html=1;aspect=fixed;fillColor=#000000;strokeColor=#FFFFFF;strokeWidth=2;" parent="1" vertex="1">
          <mxGeometry x="528" y="585" width="27" height="27" as="geometry" />
        </mxCell>
        <mxCell id="MOfZ0UF6O1ds08dy238V-146" value="&lt;font style=&quot;font-size: 15px;&quot; color=&quot;#ffffff&quot;&gt;&lt;b&gt;6&lt;/b&gt;&lt;/font&gt;" style="ellipse;whiteSpace=wrap;html=1;aspect=fixed;fillColor=#000000;strokeColor=#FFFFFF;strokeWidth=2;" parent="1" vertex="1">
          <mxGeometry x="583" y="849" width="27" height="27" as="geometry" />
        </mxCell>
        <mxCell id="MOfZ0UF6O1ds08dy238V-149" value="&lt;font style=&quot;font-size: 15px;&quot; color=&quot;#ffffff&quot;&gt;&lt;b&gt;7&lt;/b&gt;&lt;/font&gt;" style="ellipse;whiteSpace=wrap;html=1;aspect=fixed;fillColor=#000000;strokeColor=#FFFFFF;strokeWidth=2;" parent="1" vertex="1">
          <mxGeometry x="570" y="960" width="27" height="27" as="geometry" />
        </mxCell>
        <mxCell id="MOfZ0UF6O1ds08dy238V-150" value="&lt;font style=&quot;font-size: 15px;&quot; color=&quot;#ffffff&quot;&gt;&lt;b&gt;8&lt;/b&gt;&lt;/font&gt;" style="ellipse;whiteSpace=wrap;html=1;aspect=fixed;fillColor=#000000;strokeColor=#FFFFFF;strokeWidth=2;" parent="1" vertex="1">
          <mxGeometry x="333" y="963" width="27" height="27" as="geometry" />
        </mxCell>
        <mxCell id="MOfZ0UF6O1ds08dy238V-151" value="&lt;font style=&quot;font-size: 15px;&quot; color=&quot;#ffffff&quot;&gt;&lt;b&gt;9&lt;/b&gt;&lt;/font&gt;" style="ellipse;whiteSpace=wrap;html=1;aspect=fixed;fillColor=#000000;strokeColor=#FFFFFF;strokeWidth=2;" parent="1" vertex="1">
          <mxGeometry x="337" y="875" width="27" height="27" as="geometry" />
        </mxCell>
        <mxCell id="MOfZ0UF6O1ds08dy238V-152" value="&lt;font style=&quot;font-size: 15px;&quot; color=&quot;#ffffff&quot;&gt;&lt;b&gt;10&lt;/b&gt;&lt;/font&gt;" style="ellipse;whiteSpace=wrap;html=1;aspect=fixed;fillColor=#000000;strokeColor=#FFFFFF;strokeWidth=2;" parent="1" vertex="1">
          <mxGeometry x="333" y="390" width="27" height="27" as="geometry" />
        </mxCell>
      </root>
    </mxGraphModel>
  </diagram>
</mxfile>
